<svg xmlns="http://www.w3.org/2000/svg" version="1.1" xmlns:xlink="http://www.w3.org/1999/xlink" width="1000" height="1000"><style>
    #light-icon {
      display: inline;
    }
    #dark-icon {
      display: none;
    }

    @media (prefers-color-scheme: dark) {
      #light-icon {
        display: none;
      }
      #dark-icon {
        display: inline;
      }
    }
  </style><g id="light-icon"><svg xmlns="http://www.w3.org/2000/svg" version="1.1" xmlns:xlink="http://www.w3.org/1999/xlink" width="1000" height="1000"><g><g transform="matrix(1.953125,0,0,1.953125,0,0)"><svg xmlns="http://www.w3.org/2000/svg" version="1.1" xmlns:xlink="http://www.w3.org/1999/xlink" width="512" height="512"><svg width="512" height="512" viewBox="0 0 512 512" fill="none" xmlns="http://www.w3.org/2000/svg">
<path d="M0 463.756V426.1L29.7604 421.241C37.4535 420.026 42.5148 417.495 44.9443 413.649C47.3737 409.802 48.5884 402.008 48.5884 390.266V108.453C48.5884 98.3306 47.2724 91.346 44.6406 87.4994C42.0087 83.6528 36.6437 81.1222 28.5457 79.9075L0 75.656V38H189.495V75.0486L153.661 80.5148C145.563 81.7295 140.198 84.1589 137.566 87.8031C134.934 91.4472 133.618 98.3306 133.618 108.453V419.419H192.531C205.488 419.419 216.421 418.002 225.329 415.167C234.236 412.333 241.93 407.373 248.408 400.287C254.887 393.201 260.758 383.484 266.021 371.134C271.285 358.785 276.751 343.095 282.42 324.064H329.186L313.395 463.756H0Z" fill="#242424"></path>
<path d="M457.945 473.473C441.749 473.473 428.792 468.817 419.075 459.504C409.357 450.191 404.498 438.247 404.498 423.67C404.498 408.689 409.357 396.542 419.075 387.229C428.792 377.916 441.749 373.26 457.945 373.26C474.546 373.26 487.706 377.815 497.424 386.925C507.141 396.036 512 408.081 512 423.063C512 438.044 507.04 450.191 497.12 459.504C487.2 468.817 474.142 473.473 457.945 473.473Z" fill="#242424"></path>
</svg></svg></g></g></svg></g><g id="dark-icon"><svg xmlns="http://www.w3.org/2000/svg" version="1.1" xmlns:xlink="http://www.w3.org/1999/xlink" width="1000" height="1000"><g><g transform="matrix(1.953125,0,0,1.953125,0,0)"><svg xmlns="http://www.w3.org/2000/svg" version="1.1" xmlns:xlink="http://www.w3.org/1999/xlink" width="512" height="512"><svg width="512" height="512" viewBox="0 0 512 512" fill="none" xmlns="http://www.w3.org/2000/svg">
<path d="M0 463.756V426.1L29.7604 421.241C37.4535 420.026 42.5148 417.495 44.9443 413.649C47.3737 409.802 48.5884 402.008 48.5884 390.266V108.453C48.5884 98.3306 47.2724 91.346 44.6406 87.4994C42.0087 83.6528 36.6437 81.1222 28.5457 79.9075L0 75.656V38H189.495V75.0486L153.661 80.5148C145.563 81.7295 140.198 84.1589 137.566 87.8031C134.934 91.4472 133.618 98.3306 133.618 108.453V419.419H192.531C205.488 419.419 216.421 418.002 225.329 415.167C234.236 412.333 241.93 407.373 248.408 400.287C254.887 393.201 260.758 383.484 266.021 371.134C271.285 358.785 276.751 343.095 282.42 324.064H329.186L313.395 463.756H0Z" fill="#DADADA"></path>
<path d="M457.945 473.473C441.749 473.473 428.792 468.817 419.075 459.504C409.357 450.191 404.498 438.247 404.498 423.67C404.498 408.689 409.357 396.542 419.075 387.229C428.792 377.916 441.749 373.26 457.945 373.26C474.546 373.26 487.706 377.815 497.424 386.925C507.141 396.036 512 408.081 512 423.063C512 438.044 507.04 450.191 497.12 459.504C487.2 468.817 474.142 473.473 457.945 473.473Z" fill="#DADADA"></path>
</svg></svg></g></g></svg></g></svg>